<svg width="37" height="62" viewBox="0 0 37 62" fill="none" xmlns="http://www.w3.org/2000/svg">
<path d="M17.2029 38.0761L8.0955 28.9536H0L9.10743 38.0761H17.2029Z" fill="#CCCCCC"/>
<path d="M18.0034 28.9836L17.8222 52.8623H7.91425L17.0066 61.9999H26.9145L27.0957 38.1212H35.161C35.6141 34.9646 36.037 31.823 36.4901 28.5607L27.7452 19.7704C27.7905 19.6798 27.8509 19.5741 27.9113 19.4985C27.9415 19.4532 27.9566 19.423 27.9868 19.3777C28.0322 19.3173 28.0926 19.272 28.153 19.2116C28.2738 19.0757 28.4097 18.9397 28.5608 18.834C28.6363 18.7736 28.7118 18.7283 28.8024 18.683C28.9535 18.5923 29.1045 18.5168 29.2706 18.4564C29.3613 18.4262 29.4519 18.3809 29.5425 18.3507C29.7237 18.2903 29.905 18.245 30.1013 18.2147C30.192 18.1996 30.2675 18.1694 30.3581 18.1543C30.6451 18.109 30.9471 18.0788 31.2643 18.0637C31.9591 18.0335 32.6689 18.0335 33.3637 18.0335C34.3001 18.0335 35.2365 18.0486 36.173 18.0486C36.3844 18.0486 36.5808 18.0486 36.8526 18.0486L36.913 9.53022L27.8207 0.392578L27.7603 8.91097C27.5035 8.91097 27.2921 8.91097 27.0806 8.91097C26.1442 8.91097 25.2078 8.89587 24.2714 8.89587C23.5766 8.89587 22.8667 8.89587 22.172 8.92608C21.8548 8.94118 21.5527 8.97138 21.2658 9.0167C21.1751 9.0318 21.0996 9.0469 21.009 9.07711C20.8127 9.12242 20.6314 9.16773 20.4502 9.21304C20.3596 9.24325 20.2689 9.27346 20.1783 9.31877C20.0122 9.37918 19.8611 9.4698 19.7101 9.54532C19.6346 9.59063 19.544 9.63594 19.4685 9.69635C19.3174 9.80208 19.1815 9.93801 19.0607 10.0739C19.0153 10.1193 18.97 10.1495 18.9247 10.1948C18.9096 10.2099 18.9096 10.225 18.8945 10.2401C18.8643 10.2703 18.8341 10.3156 18.819 10.3609C18.7586 10.4364 18.6982 10.5271 18.6529 10.6177C18.6227 10.6781 18.5924 10.7687 18.5471 10.8291C18.532 10.8744 18.5018 10.9197 18.4867 10.9651C18.4716 10.9953 18.4565 11.0255 18.4414 11.0557C18.381 11.2218 18.3206 11.4182 18.2753 11.6145C18.2753 11.6296 18.2753 11.6447 18.2753 11.6598C18.2602 11.7353 18.2602 11.826 18.2451 11.9015C18.2149 12.0676 18.1847 12.2338 18.1695 12.415C18.1695 12.4905 18.1544 12.5811 18.1544 12.6566C18.0789 14.6805 18.0336 19.1663 18.0336 19.4079L26.2801 27.6847C26.2197 28.1076 26.1593 28.5456 26.0989 28.9685H18.0034V28.9836Z" fill="#CCCCCC"/>
<path d="M20.858 0C22.2777 0 23.6974 0.0755179 25.1021 0.135932C26.0234 0.166139 26.9447 0.302068 27.8056 0.392689L27.7452 8.91108C27.4884 8.91108 27.277 8.91108 27.0655 8.91108C26.1291 8.91108 25.1927 8.89598 24.2563 8.89598C23.5615 8.89598 22.8516 8.89598 22.1569 8.92619C19.9065 9.00171 18.2451 9.8475 18.1242 12.6719C18.0487 14.6957 18.0034 19.1815 18.0034 19.4231C18.1242 19.4231 20.3445 19.4382 22.5949 19.4382C23.7125 19.4382 24.8151 19.4382 25.5703 19.4231C26.1593 19.4231 26.7333 19.4231 27.3978 19.4231C26.9447 22.6855 26.5218 25.827 26.0687 28.9837H18.0034L17.8222 52.8624H7.91425L8.0955 28.9384H0L0.0755165 19.4231H8.21632V18.7133C8.23142 16.7951 8.20122 14.877 8.27674 12.9588C8.30694 11.7506 8.36736 10.5121 8.59391 9.31888C9.13764 6.4039 10.497 3.95712 12.9286 2.22022C15.0582 0.694759 17.4899 0.0604141 20.0726 0C20.3294 0 20.5861 0 20.858 0Z" fill="white"/>
</svg>
