<svg width="56" height="56" viewBox="0 0 56 56" fill="none" xmlns="http://www.w3.org/2000/svg">
<path d="M21.2791 15.9794C20.9317 16.0851 20.5692 16.1909 20.2369 16.3419C20.0406 16.4325 19.8745 16.5382 19.6932 16.6289C19.4062 16.795 19.1193 16.9611 18.8474 17.1575C18.6662 17.2783 18.5151 17.4143 18.349 17.5653C18.1073 17.7767 17.8657 18.0033 17.6542 18.2449C17.5787 18.3356 17.473 18.4111 17.3824 18.5017C17.3068 18.5923 17.2615 18.6829 17.2011 18.7736C17.0803 18.9397 16.9595 19.1059 16.8537 19.2871C16.7782 19.4079 16.6876 19.5136 16.6272 19.6345C16.5517 19.7704 16.4912 19.9365 16.4157 20.0725C16.3553 20.1933 16.2949 20.3141 16.2345 20.4501C16.2043 20.5256 16.159 20.586 16.1288 20.6615C16.008 20.9938 15.9022 21.3412 15.8116 21.7037C15.8116 21.7188 15.8116 21.7188 15.8116 21.7339C15.7965 21.7641 15.7965 21.8094 15.7965 21.8396C15.7361 22.1568 15.6757 22.489 15.6455 22.8364C15.6304 22.9875 15.6304 23.1536 15.6304 23.3046C15.6304 23.5916 15.6303 23.8786 15.6606 24.1655C15.6757 24.3468 15.721 24.5129 15.7512 24.6942C15.7663 24.7999 15.7814 24.9207 15.8116 25.0264C15.9022 25.4493 16.0079 25.8571 16.159 26.2347C16.1741 26.2649 16.1892 26.2951 16.2043 26.3253C16.2345 26.4009 16.2647 26.4613 16.2949 26.5368C16.446 26.8993 16.6272 27.2315 16.8386 27.5638C16.899 27.6544 16.9595 27.7451 17.0199 27.8357C17.0652 27.8961 17.0954 27.9716 17.1407 28.032C17.3673 28.3341 17.6089 28.6211 17.8808 28.8929L24.2998 35.3421C23.9675 35.3724 23.6352 35.4026 23.303 35.4026C21.2338 35.4026 19.3005 34.889 17.6089 33.9677C16.597 33.424 15.6757 32.7292 14.8752 31.9136L23.9675 41.0513C26.1122 43.2111 29.0876 44.5402 32.3953 44.5402C32.8484 44.5402 33.2864 44.51 33.7093 44.4647C33.8452 44.4496 33.9812 44.4194 34.1322 44.4043C34.4192 44.359 34.7061 44.3136 34.9931 44.2532C35.1592 44.223 35.3103 44.1777 35.4764 44.1324C35.7332 44.072 35.9899 43.9965 36.2316 43.9058C36.3977 43.8454 36.5487 43.785 36.7149 43.7246C36.9565 43.634 37.1831 43.5434 37.4097 43.4376C37.5607 43.3621 37.7268 43.2866 37.8779 43.2111C38.1044 43.0903 38.331 42.9694 38.5424 42.8335C38.6783 42.7429 38.8294 42.6674 38.9653 42.5767C39.1919 42.4257 39.4184 42.2596 39.6299 42.1085C39.7507 42.0179 39.8564 41.9424 39.9772 41.8518C40.2491 41.6252 40.521 41.3987 40.7777 41.1419C40.823 41.0966 40.8683 41.0664 40.9137 41.0211C41.2006 40.7341 41.4876 40.4169 41.7444 40.0998C41.7595 40.0847 41.7746 40.0696 41.7897 40.0545C41.8199 40.0242 41.835 39.994 41.8501 39.9638C42.2428 39.4654 42.6204 38.9368 42.9376 38.378C42.9527 38.3629 42.9678 38.3326 42.9829 38.3175C42.9829 38.3024 42.998 38.3024 42.998 38.2873C43.2547 37.8342 43.4662 37.366 43.6625 36.8827C43.6776 36.8223 43.7229 36.777 43.738 36.7166C43.7682 36.6562 43.7833 36.5806 43.7984 36.5051C43.9344 36.1124 44.0552 35.7046 44.1609 35.2968C44.176 35.2364 44.2062 35.176 44.2213 35.1005C44.2213 35.0854 44.2214 35.0552 44.2365 35.0401C44.3422 34.5417 44.4177 34.0281 44.463 33.5146C44.463 33.4693 44.4781 33.424 44.4781 33.3636C44.4932 33.0917 44.5083 32.8048 44.5083 32.5178C44.5083 32.11 44.4932 31.7022 44.463 31.2944C44.4177 30.796 44.3271 30.2976 44.2213 29.8143C44.1911 29.6783 44.1609 29.5424 44.1156 29.4065C44.025 29.0289 43.9042 28.6664 43.7682 28.319C43.738 28.2435 43.7229 28.168 43.6927 28.0773C43.6776 28.0471 43.6625 28.0169 43.6474 27.9716C43.4662 27.5336 43.2698 27.1107 43.0433 26.6878C42.998 26.6123 42.9526 26.5368 42.9073 26.4613C42.711 26.129 42.4995 25.7967 42.2881 25.4795C42.2428 25.4191 42.2126 25.3587 42.1824 25.2983C42.1371 25.253 42.0917 25.2077 42.0615 25.1473C41.7444 24.7395 41.4121 24.3468 41.0496 23.9692L31.9573 14.8315C32.3198 15.194 32.652 15.6018 32.9692 16.0096C33.0447 16.1154 33.1354 16.2211 33.2109 16.3268C33.4374 16.644 33.6489 16.9611 33.8452 17.3085C33.8905 17.384 33.9358 17.4596 33.9811 17.5351C34.2077 17.9429 34.404 18.3809 34.5853 18.8189C34.6306 18.9246 34.6608 19.0454 34.7061 19.1512C34.842 19.5136 34.9478 19.8761 35.0535 20.2386C35.0837 20.3745 35.129 20.5105 35.1592 20.6464C35.2649 21.1297 35.3556 21.613 35.4009 22.1266C35.4311 22.5343 35.4613 22.9421 35.4462 23.3499C35.4462 23.6671 35.416 23.9692 35.3858 24.2864L28.9517 17.822C27.5772 16.4476 25.6742 15.5867 23.5597 15.5716C23.5295 15.5716 23.5144 15.5716 23.4842 15.5716C22.9103 15.5716 22.3514 15.6471 21.8077 15.768C21.6114 15.8586 21.4603 15.9341 21.2791 15.9794ZM26.3085 27.9263C26.4445 27.7451 26.6106 27.5638 26.7617 27.3977C26.9731 27.156 27.2148 26.9295 27.4564 26.718C27.6226 26.5821 27.7887 26.4462 27.9548 26.3102C28.2267 26.1139 28.5137 25.9477 28.8006 25.7816C28.9819 25.6759 29.1631 25.5702 29.3444 25.4946C29.6766 25.3436 30.024 25.2379 30.3865 25.1322C30.5526 25.0868 30.7188 25.0113 30.9 24.9811C31.4438 24.8603 32.0026 24.7848 32.5765 24.7848C32.6067 24.7848 32.6218 24.7848 32.652 24.7848C33.5733 24.7999 34.4343 24.9811 35.2347 25.2832C35.2045 25.4946 35.1894 25.7212 35.129 25.9477C35.1139 26.0384 35.0837 26.1139 35.0686 26.2045C34.9629 26.6123 34.842 27.0201 34.7061 27.4128C34.6608 27.5336 34.6155 27.6695 34.5702 27.7904C34.3738 28.2737 34.1624 28.757 33.9056 29.2101C33.8905 29.2403 33.8754 29.2705 33.8452 29.3007C33.528 29.8596 33.1656 30.3882 32.7578 30.8866C32.7276 30.9319 32.6973 30.9772 32.652 31.0225C32.3953 31.3397 32.1083 31.6569 31.8214 31.9438C31.776 31.9892 31.7307 32.0194 31.7005 32.0647C31.4438 32.3063 31.1719 32.548 30.9 32.7745C30.7943 32.8652 30.6735 32.9407 30.5526 33.0313C30.3261 33.1974 30.1147 33.3636 29.8881 33.5146C29.7522 33.6052 29.6162 33.6808 29.4652 33.7714C29.2386 33.9073 29.0272 34.0281 28.8006 34.149C28.6496 34.2245 28.4986 34.3 28.3475 34.3755C28.121 34.4812 27.8793 34.5719 27.6528 34.6625C27.4866 34.7229 27.3356 34.7833 27.1695 34.8437C26.9278 34.9343 26.671 34.9948 26.4143 35.0703C26.2481 35.1156 26.0971 35.1609 25.931 35.1911C25.7044 35.2364 25.4779 35.2666 25.2513 35.3119C25.1305 34.9646 25.0096 34.6172 24.9341 34.2396C24.919 34.1339 24.9039 34.013 24.8737 33.9073C24.7982 33.4542 24.7529 33.0011 24.7529 32.5329C24.768 32.0345 24.8284 31.5361 24.919 31.0678C24.919 31.0376 24.9341 30.9923 24.9341 30.9621C25.0398 30.5241 25.1758 30.1012 25.357 29.6783C25.4175 29.5575 25.4779 29.4216 25.5383 29.3007C25.6742 29.0289 25.8252 28.7721 25.9763 28.5154C26.0669 28.2737 26.1877 28.0925 26.3085 27.9263Z" fill="#CCCCCC"/>
<path d="M12.8664 51.956C14.3919 53.4815 16.4006 54.584 18.8776 55.2184C20.7505 55.7017 26.3086 55.9132 31.8818 55.9132C37.319 55.9132 42.7714 55.7168 44.7953 55.3845C45.5656 55.2637 46.2754 55.0825 46.9702 54.871C47.1817 54.8106 47.3931 54.72 47.5894 54.6445C48.0576 54.4783 48.4956 54.282 48.9185 54.0705C49.13 53.9648 49.3414 53.844 49.5529 53.7231C49.9456 53.4966 50.3232 53.2398 50.6857 52.9529C50.8669 52.8169 51.033 52.6961 51.1992 52.5602C51.6372 52.1826 52.0299 51.7748 52.4075 51.3368C52.4528 51.2764 52.5283 51.2311 52.5736 51.1706C52.5887 51.1555 52.5887 51.1404 52.5887 51.1404C52.9965 50.642 53.359 50.0983 53.6913 49.5244C53.7064 49.4941 53.7215 49.4791 53.7366 49.4488C53.8272 49.2827 53.9027 49.0713 53.9933 48.9051C54.1746 48.5275 54.3709 48.1499 54.5371 47.7421C54.5522 47.6817 54.5824 47.6364 54.6126 47.5911C54.7938 47.0927 54.9751 46.5792 55.111 46.0354C55.1412 45.9297 55.1563 45.824 55.1865 45.7183C55.2167 45.5521 55.2469 45.3709 55.2922 45.1896C55.2922 45.1594 55.3073 45.1292 55.3073 45.099C55.3526 44.7818 55.398 44.4345 55.4433 44.0569C55.4584 43.9663 55.4584 43.8605 55.4735 43.7699C55.5188 43.4074 55.549 43.0298 55.5792 42.622C55.5792 42.5767 55.5943 42.5314 55.5943 42.4861C55.5943 42.471 55.5943 42.4559 55.5943 42.4408C55.6245 41.9877 55.6547 41.5044 55.6849 41.006C55.7 40.8549 55.7 40.6888 55.7151 40.5227C55.7302 40.1451 55.7454 39.7675 55.7756 39.3899C55.7907 39.1935 55.7907 38.9821 55.8058 38.7857C55.8209 38.4082 55.836 38.0306 55.836 37.6379C55.836 37.4415 55.8511 37.2301 55.8511 37.0337C55.8662 36.5655 55.8662 36.0973 55.8813 35.614C55.8813 35.4932 55.8813 35.3723 55.8813 35.2515C55.8964 34.6474 55.8964 34.0432 55.8964 33.424C55.8964 33.2579 55.8964 33.0917 55.8964 32.9256C55.8964 32.4725 55.8964 32.0345 55.8964 31.5814C55.8964 31.3699 55.8964 31.1585 55.8964 30.947C55.8964 30.5392 55.8964 30.1314 55.8964 29.7387C55.8964 29.5424 55.8964 29.346 55.8964 29.1497C55.8964 28.6966 55.8813 28.2435 55.8813 27.8055C55.8813 27.6847 55.8813 27.5638 55.8813 27.443C55.8662 26.8842 55.8662 26.3555 55.8511 25.842C55.8511 25.7363 55.8511 25.6457 55.836 25.5399C55.8209 25.1322 55.8209 24.7546 55.8058 24.377C55.8058 24.2259 55.7907 24.09 55.7907 23.9541C55.7756 23.652 55.7756 23.3499 55.7604 23.0781C55.7604 22.9421 55.7453 22.8213 55.7453 22.6854C55.7302 22.3984 55.7151 22.1416 55.7 21.9C55.7 21.8245 55.6849 21.7339 55.6849 21.6583C55.6698 21.3714 55.6547 21.1146 55.6245 20.9032C55.6245 20.8881 55.6245 20.873 55.6245 20.8579C55.5641 20.1631 55.4433 19.4834 55.2771 18.834C55.2318 18.6225 55.1563 18.4262 55.0959 18.2147C55.0053 17.8825 54.9146 17.5351 54.7938 17.2179C54.7485 17.1122 54.6881 17.0064 54.6428 16.8856C54.5673 16.7044 54.4767 16.5382 54.4011 16.357C54.1897 15.919 53.9631 15.5112 53.7064 15.0883C53.6157 14.9373 53.5251 14.7862 53.4194 14.6352C53.3741 14.5597 53.3288 14.4842 53.2684 14.4086C52.921 13.9404 52.5434 13.5024 52.1205 13.0795L43.0282 3.94189C43.5115 4.44031 43.9344 4.95383 44.3271 5.49756C44.4328 5.64859 44.5234 5.79963 44.6141 5.95066C44.8708 6.35846 45.1124 6.78136 45.3239 7.21936C45.3994 7.40061 45.49 7.56674 45.5656 7.74799C45.7468 8.17089 45.8827 8.62399 46.0187 9.07709C46.0791 9.28854 46.1546 9.48489 46.1999 9.69634C46.3509 10.3609 46.4718 11.0254 46.5473 11.7202C46.5624 11.9317 46.5926 12.2035 46.6077 12.5207C46.6077 12.6113 46.6228 12.717 46.6228 12.8077C46.6379 13.0342 46.653 13.2759 46.6681 13.5477C46.6681 13.5628 46.6681 13.5628 46.6681 13.578L40.0528 6.93239C38.8747 5.75432 37.2888 4.96893 35.3254 4.66686C33.3166 4.36479 28.4533 4.22886 23.6201 4.22886C18.9531 4.22886 14.3164 4.34969 12.2774 4.57624C11.7186 4.63665 11.1748 4.75748 10.6764 4.89341C10.5103 4.93872 10.3592 4.99914 10.2082 5.05955C9.87591 5.18038 9.54364 5.30121 9.22646 5.43714C9.06033 5.51266 8.8942 5.60328 8.74316 5.6939C8.4713 5.84494 8.19943 6.02618 7.95777 6.20742C7.80674 6.31315 7.67079 6.41887 7.51976 6.5397C7.2781 6.75115 7.05155 6.97771 6.8401 7.21936C6.76459 7.30999 6.65886 7.3855 6.58335 7.47612C6.55314 7.52143 6.52294 7.56674 6.49273 7.61205C6.3568 7.77819 6.25106 7.97453 6.13024 8.15578C6.03961 8.29171 5.93389 8.42764 5.84326 8.57867C5.81306 8.62398 5.79797 8.6844 5.76777 8.74481C5.69225 8.89585 5.61673 9.062 5.55632 9.21303C5.4808 9.37917 5.39016 9.5302 5.32975 9.69634C5.29954 9.78696 5.28444 9.87758 5.25423 9.9531C5.19381 10.1343 5.1334 10.3307 5.08809 10.527C5.04278 10.6781 4.99747 10.814 4.95216 10.965C4.90685 11.1765 4.86154 11.403 4.83133 11.6296C4.78602 11.8864 4.75581 12.2035 4.7105 12.5358C4.6954 12.6566 4.69541 12.7926 4.68031 12.9134C4.66521 13.1248 4.63499 13.3363 4.61988 13.578C4.61988 13.6082 4.61988 13.6384 4.61988 13.6837C4.60478 13.8045 4.6048 13.9253 4.58969 14.0462C4.57459 14.3331 4.54437 14.6352 4.52926 14.9524C4.51416 15.1034 4.51415 15.2695 4.49905 15.4357C4.48395 15.7378 4.46885 16.0549 4.45374 16.3872C4.43864 16.5685 4.43865 16.7497 4.43865 16.9309C4.42354 17.2783 4.40843 17.6408 4.40843 18.0033C4.40843 18.1694 4.39334 18.3356 4.39334 18.5017C4.37824 19.0303 4.36313 19.574 4.34803 20.1178C4.34803 20.2084 4.34803 20.3141 4.34803 20.4199C4.33293 20.873 4.33291 21.3412 4.33291 21.8094C4.33291 22.0208 4.33291 22.2172 4.33291 22.4286C4.33291 22.7911 4.33292 23.1536 4.31782 23.5161C4.31782 23.7426 4.31782 23.9692 4.31782 24.1957C4.31782 24.5733 4.31782 24.9358 4.31782 25.2983C4.31782 25.4946 4.31782 25.691 4.31782 25.8873C4.31782 26.3706 4.31781 26.8388 4.33291 27.3071C4.33291 27.3826 4.33291 27.4581 4.33291 27.5336C4.33291 28.0773 4.34802 28.606 4.36313 29.1195C4.36313 29.2554 4.36312 29.3913 4.37822 29.5273C4.39332 29.8898 4.39333 30.2522 4.40843 30.5996C4.40843 30.7658 4.42355 30.9168 4.42355 31.0829C4.43866 31.385 4.43864 31.6871 4.45374 31.9741C4.45374 32.1251 4.46886 32.2761 4.46886 32.412C4.48396 32.7141 4.49907 32.986 4.51417 33.2579C4.51417 33.3636 4.52926 33.4693 4.52926 33.5599C4.54437 33.8922 4.57459 34.2094 4.58969 34.4661C4.58969 34.4812 4.58969 34.4812 4.58969 34.4812C4.6199 34.7833 4.6501 35.0552 4.68031 35.2666C4.78603 35.9161 4.95217 36.5051 5.14852 37.0639C5.17872 37.1395 5.17871 37.215 5.20892 37.2905C5.22402 37.3509 5.26933 37.3962 5.29954 37.4415C5.52609 38.0004 5.81308 38.529 6.14535 39.0123C6.16046 39.0274 6.16046 39.0576 6.19066 39.0878C6.38701 39.3597 6.61357 39.6164 6.85522 39.8581L13.531 46.549C11.8847 46.4432 10.5707 46.2922 9.8306 46.111C9.21135 45.9448 8.62232 45.7636 8.06349 45.5521C6.38699 44.9027 4.96727 43.9965 3.8194 42.8486L12.8664 51.956ZM46.6832 14.4691C46.6832 14.5899 46.6983 14.6956 46.6983 14.8013C46.6983 14.9524 46.7134 15.1185 46.7134 15.2695C46.7285 15.6169 46.7285 15.9643 46.7436 16.3419C46.7436 16.4778 46.7437 16.5987 46.7588 16.7346C46.7739 17.0669 46.7738 17.4294 46.7738 17.7767L42.6506 13.6384C43.3605 13.6837 43.9646 13.7441 44.4177 13.8196C45.2333 13.9404 45.9885 14.167 46.6832 14.4691ZM37.2284 13.4118C37.1831 13.442 37.1378 13.4722 37.0925 13.5024C37.0472 13.5175 37.0019 13.5326 36.9566 13.5477C36.6394 13.6686 36.3071 13.7441 35.9446 13.7441C35.4613 13.7441 35.0384 13.578 34.6457 13.3665C35.5368 13.3816 36.3977 13.3967 37.2284 13.4118ZM32.7125 13.3665C33.2864 13.3665 33.8603 13.3665 34.4343 13.3665L43.0886 22.051C43.587 22.5495 44.2818 22.8666 45.052 22.8817C45.4145 22.8817 45.7468 22.8062 46.064 22.6854C46.1093 22.6703 46.1546 22.6552 46.1999 22.6401C46.4265 22.5494 46.6379 22.4286 46.8192 22.2776C46.8192 22.338 46.8192 22.3984 46.8192 22.4588C46.8192 22.8817 46.8192 23.3046 46.8192 23.7426C46.8192 23.939 46.8192 24.1202 46.8192 24.3166C46.8192 24.9207 46.8041 25.5248 46.8041 26.1139C46.8041 26.2347 46.8041 26.3555 46.8041 26.4613C46.789 26.9446 46.789 27.4279 46.7738 27.9112C46.7738 28.1075 46.7588 28.3039 46.7588 28.5002C46.7437 28.8929 46.7285 29.2856 46.7134 29.6783C46.7134 29.8747 46.6983 30.071 46.6983 30.2673C46.6832 30.66 46.6681 31.0527 46.6379 31.4303C46.6228 31.5814 46.6228 31.7475 46.6077 31.9136C46.5775 32.4272 46.5473 32.9256 46.5171 33.3938C46.5171 33.4391 46.502 33.4844 46.502 33.5297C46.4718 33.9375 46.4265 34.3151 46.3963 34.6776C46.3812 34.7833 46.3811 34.8739 46.366 34.9646C46.3207 35.3421 46.2754 35.7046 46.2301 36.0067C46.2301 36.0369 46.215 36.0671 46.215 36.0973C46.1546 36.4145 46.1093 36.7166 46.0338 36.9431C45.8676 37.5472 45.6713 38.1061 45.4599 38.6498C45.2937 39.0576 45.1125 39.4352 44.9312 39.7977C44.8255 40.0091 44.7349 40.2357 44.6292 40.432C44.2969 41.006 43.9344 41.5497 43.5266 42.0481C43.4662 42.1236 43.3907 42.184 43.3302 42.2445C42.9527 42.6825 42.56 43.0903 42.122 43.4678C41.9558 43.6038 41.7746 43.7397 41.6084 43.8605C41.246 44.1324 40.8684 44.3892 40.4757 44.6308C40.2642 44.7516 40.0528 44.8725 39.8413 44.9782C39.4184 45.1897 38.9653 45.386 38.5122 45.5521C38.3008 45.6276 38.1044 45.7183 37.893 45.7787C37.1982 45.9901 36.4883 46.1714 35.7181 46.2922C33.6942 46.6245 28.2569 46.8208 22.8046 46.8208C19.7989 46.8208 16.8084 46.7604 14.3919 46.6245C14.3919 46.6094 14.3768 46.6094 14.3768 46.6094C14.3315 46.4885 14.271 46.3526 14.2257 46.2318C14.0294 45.673 13.8481 45.0839 13.7575 44.4345C13.7273 44.223 13.6971 43.9663 13.6669 43.6491C13.6367 43.3772 13.6216 43.0601 13.5914 42.7127C13.5914 42.622 13.5763 42.5012 13.5763 42.4106C13.5612 42.1538 13.5461 41.882 13.531 41.5799C13.531 41.4289 13.5159 41.2778 13.5159 41.1268C13.5008 40.8549 13.5008 40.5529 13.4857 40.2508C13.4857 40.0846 13.4706 39.9185 13.4706 39.7524C13.4555 39.4201 13.4554 39.0878 13.4403 38.7404C13.4403 38.5743 13.4252 38.4233 13.4252 38.2571C13.4101 37.7587 13.4101 37.2452 13.395 36.7166C13.395 36.6108 13.395 36.49 13.395 36.3692C13.395 35.9312 13.3799 35.4932 13.3799 35.0401C13.3799 34.8437 13.3799 34.6625 13.3799 34.4661C13.3799 34.0885 13.3799 33.711 13.3799 33.3183C13.3799 33.1219 13.3799 32.9105 13.3799 32.7141C13.3799 32.3214 13.3799 31.9287 13.395 31.5361C13.395 31.3548 13.395 31.1736 13.395 30.9923C13.395 30.509 13.4101 30.0408 13.4101 29.5575C13.4101 29.4669 13.4101 29.3762 13.4101 29.2856C13.4253 28.7268 13.4404 28.1831 13.4555 27.6544C13.4555 27.5034 13.4706 27.3675 13.4706 27.2315C13.4857 26.8389 13.5008 26.4613 13.5159 26.0988C13.5159 25.9326 13.531 25.7665 13.531 25.6004C13.5461 25.2681 13.5612 24.9358 13.5763 24.6337C13.5914 24.4676 13.5914 24.3166 13.6065 24.1504C13.6216 23.8181 13.6518 23.5161 13.6669 23.214C13.682 23.1083 13.682 22.9874 13.682 22.8817C13.6971 22.5948 13.7273 22.3531 13.7424 22.0963C13.7575 21.9755 13.7575 21.8396 13.7726 21.7339C13.8028 21.3865 13.8481 21.0844 13.8935 20.8276C13.9539 20.4501 14.0596 20.0876 14.1502 19.7402C14.2106 19.5438 14.2559 19.3475 14.3163 19.1663C14.407 18.9095 14.5127 18.6678 14.6184 18.4262C14.694 18.2751 14.7544 18.109 14.8299 17.958C14.9356 17.7465 15.0715 17.5653 15.1924 17.3689C15.3132 17.1877 15.434 16.9913 15.5548 16.8252C15.6606 16.6893 15.7814 16.5684 15.9022 16.4476C16.1137 16.206 16.3402 15.9794 16.5819 15.768C16.7178 15.6471 16.8689 15.5414 17.0199 15.4357C17.2767 15.2544 17.5334 15.0883 17.8053 14.9222C17.9714 14.8315 18.1224 14.7409 18.2886 14.6654C18.6058 14.5144 18.9229 14.3935 19.2703 14.2878C19.4213 14.2274 19.5724 14.167 19.7385 14.1217C20.2521 13.9857 20.7807 13.8649 21.3395 13.8045C23.4087 13.5024 28.0455 13.3665 32.7125 13.3665Z" fill="#CCCCCC"/>
<path d="M35.9749 8.14062C35.99 8.14062 36.0051 8.14062 36.0051 8.14062C37.5456 8.14062 38.7992 9.39422 38.7841 10.965C38.769 12.5056 37.5003 13.7591 35.9446 13.7591C34.389 13.744 33.1505 12.4753 33.1656 10.9348C33.1807 9.37912 34.4343 8.14062 35.9749 8.14062Z" fill="white"/>
<path d="M46.5322 11.7354C46.8796 15.4207 47.1061 32.82 46.0187 36.8979C44.5687 42.2295 41.0798 45.3861 35.6879 46.2621C33.664 46.5944 28.2267 46.7907 22.7744 46.7907C17.2011 46.7907 11.643 46.5793 9.77021 46.096C4.46887 44.7216 1.29713 41.2629 0.451332 35.886C-0.183017 31.944 -0.243441 13.5932 0.889324 9.62095C2.36947 4.44044 5.84328 1.38952 11.0842 0.528621C13.4555 0.13593 18.1074 0 22.8046 0C27.1695 0 31.5797 0.120826 34.2379 0.256757C37.455 0.422896 40.3851 1.46504 42.7865 3.74568C45.0672 5.93569 46.2301 8.65433 46.5322 11.7354ZM42.0314 35.1157C42.6959 31.0076 42.711 15.9795 42.3183 12.1281C41.8954 8.01998 39.3882 5.30134 35.3103 4.66699C33.3015 4.36492 28.4382 4.22899 23.6051 4.22899C18.9381 4.22899 14.3013 4.34982 12.2623 4.57637C8.18433 5.04458 5.43549 7.56687 4.78604 11.6297C4.12148 15.9342 4.12148 32.0195 4.6199 35.2516C5.13342 38.6197 7.03648 40.9306 10.3895 41.867C12.2019 42.3805 17.6392 42.5618 22.9707 42.5618C27.8794 42.5618 32.6974 42.4107 34.5098 42.2144C38.6482 41.7462 41.3819 39.2239 42.0314 35.1157Z" fill="white"/>
<path d="M23.5145 11.4034C30.1298 11.4034 35.4613 16.7802 35.416 23.4107C35.3707 30.026 29.9486 35.4029 23.3181 35.4029C16.6877 35.4029 11.3712 30.026 11.4165 23.3956C11.4618 16.7651 16.884 11.3882 23.5145 11.4034ZM23.3332 31.1588C27.5924 31.1588 31.0813 27.7303 31.1568 23.4711C31.2324 19.1666 27.819 15.6777 23.5296 15.6323C23.4994 15.6323 23.4842 15.6323 23.454 15.6323C19.1948 15.6323 15.7059 19.0608 15.6304 23.32C15.5549 27.6094 18.9683 31.1135 23.2577 31.1588C23.2879 31.1588 23.3181 31.1588 23.3332 31.1588Z" fill="white"/>
</svg>
