<svg width="55" height="55" viewBox="0 0 55 55" fill="none" xmlns="http://www.w3.org/2000/svg">
<path d="M34.9907 38.1552C35.0386 37.6756 35.1026 37.1961 35.1985 36.7325C35.2464 36.5087 35.2944 36.2849 35.3583 36.0771C35.4063 35.9173 35.4383 35.7575 35.5022 35.6136C35.6141 35.2619 35.758 34.9263 35.9338 34.6066C35.9338 34.5906 35.9338 34.5906 35.9498 34.5746C36.1256 34.2549 36.3334 33.9832 36.5732 33.7274C36.6691 33.6315 36.765 33.5356 36.8609 33.4397C37.0367 33.2639 37.2445 33.12 37.4683 32.9761C37.5962 32.8962 37.7081 32.8163 37.8519 32.7523C38.1077 32.6245 38.3794 32.5285 38.6832 32.4486C38.827 32.4007 38.9549 32.3527 39.0987 32.3208C39.5623 32.2249 40.0578 32.1609 40.6333 32.1609C41.3846 32.1609 42.0239 32.2728 42.5674 32.4806C43.1109 32.6884 43.5425 32.9761 43.9101 33.3278L34.2874 23.6571C33.9037 23.2734 33.4082 22.9697 32.8168 22.7619L25.0482 14.9614L25.0163 19.1014L28.7567 22.8578C28.5808 22.9218 28.405 22.9857 28.2452 23.0656C28.1173 23.1296 27.9894 23.2095 27.8615 23.2894C27.6377 23.4333 27.4459 23.5772 27.2541 23.753C27.1582 23.8489 27.0463 23.9288 26.9664 24.0407C26.9184 24.0886 26.8545 24.1366 26.8225 24.1845C26.6467 24.4083 26.4868 24.6321 26.343 24.8879C26.343 24.9039 26.327 24.9039 26.327 24.9199C26.1991 25.1596 26.0712 25.4154 25.9753 25.6871C25.9434 25.767 25.9274 25.847 25.9114 25.9109C25.8634 26.0548 25.8155 26.2146 25.7675 26.3745C25.7356 26.5023 25.6876 26.6302 25.6556 26.7741C25.6397 26.854 25.6397 26.9499 25.6237 27.0298C25.5278 27.4934 25.4638 27.9569 25.4159 28.4525C25.4159 28.5164 25.3999 28.5803 25.3839 28.6443C25.3839 28.6763 25.3839 28.6922 25.3839 28.7242C25.3519 29.2357 25.32 29.7472 25.32 30.2587L25.2081 45.2204H19.6134L19.7733 24.6321L15.6173 20.4601C15.8411 20.4441 16.0648 20.4282 16.2726 20.3802C16.4005 20.3482 16.5124 20.3003 16.6403 20.2683C16.896 20.1884 17.1358 20.1244 17.3596 20.0126C17.4875 19.9486 17.6154 19.8687 17.7432 19.8048C17.951 19.6929 18.1428 19.565 18.3347 19.4371C18.4625 19.3412 18.5744 19.2453 18.6863 19.1494C18.8622 19.0055 19.022 18.8457 19.1659 18.6698C19.2138 18.6059 19.2937 18.558 19.3417 18.494C19.3897 18.4301 19.4376 18.3501 19.4856 18.2862C19.5655 18.1743 19.6454 18.0464 19.7253 17.9186C19.7733 17.8386 19.8372 17.7747 19.8692 17.6948C19.9331 17.5829 19.9811 17.455 20.029 17.3431C20.077 17.2632 20.109 17.1833 20.1409 17.0874C20.1569 17.0394 20.1889 17.0075 20.2049 16.9595C20.3008 16.7197 20.3647 16.4799 20.4287 16.2242C20.4287 16.2082 20.4287 16.1922 20.4287 16.1762C20.4446 16.1283 20.4446 16.0643 20.4446 16.0164C20.4766 15.8246 20.5246 15.6328 20.5406 15.425C20.5565 15.2971 20.5565 15.1692 20.5565 15.0413C20.5565 14.8495 20.5565 14.6737 20.5406 14.4819C20.5406 14.4179 20.5086 14.354 20.4926 14.29C20.4446 13.9064 20.3647 13.5548 20.2368 13.2031C20.2209 13.1551 20.2209 13.0912 20.1889 13.0273C20.1889 13.0113 20.1729 12.9953 20.1569 12.9793C19.9971 12.5797 19.7893 12.212 19.5495 11.8604C19.5335 11.8284 19.5175 11.7965 19.5015 11.7645C19.3417 11.5567 19.1659 11.3489 18.99 11.1571L9.36727 1.48633C9.57507 1.69413 9.76689 1.93391 9.92673 2.17368C10.1665 2.52534 10.3903 2.89299 10.5342 3.2926C10.5661 3.35654 10.5821 3.43646 10.5981 3.51639C10.726 3.86805 10.8059 4.23569 10.8538 4.60333C10.8858 4.8431 10.9338 5.09886 10.9178 5.35461C10.9178 5.69029 10.8698 6.00999 10.8059 6.32968C10.7899 6.37763 10.7899 6.42558 10.7899 6.47354C10.726 6.79323 10.6301 7.08097 10.5022 7.3687C10.4702 7.44862 10.4223 7.54451 10.3903 7.62443C10.2944 7.81625 10.1985 8.00807 10.0706 8.19988C9.99067 8.32776 9.91075 8.43965 9.83082 8.55155C9.73491 8.69541 9.62302 8.8233 9.51113 8.93519C9.36727 9.11102 9.20742 9.25489 9.03159 9.41473C8.9197 9.51064 8.80781 9.60654 8.67993 9.70245C8.48811 9.84631 8.29629 9.95819 8.08849 10.0701C7.96062 10.134 7.83274 10.214 7.70486 10.2779C7.46509 10.3898 7.22532 10.4697 6.98555 10.5337C6.85768 10.5656 6.74578 10.6136 6.61791 10.6455C6.23427 10.7255 5.85064 10.7734 5.43504 10.7734C3.93248 10.7734 2.58977 10.166 1.59872 9.17495L10.0866 17.6948L9.87878 45.1245H0.463806L10.0866 54.7952H19.4856L19.5335 48.9288L25.3679 54.7952H34.7829L34.8948 39.8336C34.8948 39.322 34.9108 38.8105 34.9587 38.299C34.9747 38.347 34.9907 38.2511 34.9907 38.1552Z" fill="#CCCCCC"/>
<path d="M54.6839 34.511C54.6839 34.4311 54.6519 34.3511 54.6519 34.2712C54.588 33.5999 54.492 32.9605 54.3802 32.3371C54.3482 32.1932 54.3322 32.0334 54.3002 31.8895C54.1564 31.2022 53.9646 30.5628 53.7408 29.9554C53.7248 29.9074 53.7088 29.8595 53.6928 29.8115C53.6129 29.6197 53.517 29.4439 53.4371 29.252C53.3571 29.0922 53.2932 28.9164 53.2133 28.7565C53.0854 28.5008 52.9255 28.245 52.7657 28.0052C52.6858 27.8774 52.6218 27.7495 52.5259 27.6216C52.5099 27.6056 52.5099 27.5896 52.494 27.5577C52.2542 27.222 51.9825 26.9183 51.6947 26.6146L42.072 16.9438C42.3757 17.2476 42.6474 17.5833 42.9032 17.9349C42.9831 18.0628 43.063 18.1907 43.1429 18.3185C43.3028 18.5583 43.4626 18.8141 43.5905 19.0698C43.6704 19.2297 43.7344 19.4055 43.8143 19.5653C43.9102 19.7891 44.0221 20.0289 44.102 20.2687C44.3258 20.8761 44.5176 21.5315 44.6615 22.2028C44.6934 22.3467 44.7254 22.5065 44.7414 22.6504C44.8533 23.2738 44.9492 23.9132 45.0131 24.5845C45.0291 24.6964 45.0451 24.8083 45.0451 24.9202C45.157 26.1031 45.189 27.3499 45.173 28.6446L45.0451 45.2367H35.6621L45.2849 54.9074H54.6679L54.7957 38.3154C54.8117 37.0206 54.7638 35.7738 54.6679 34.5909C54.6839 34.5749 54.6839 34.543 54.6839 34.511Z" fill="#CCCCCC"/>
<path d="M5.49844 0C8.51921 0 10.9326 2.44537 10.9007 5.45016C10.8847 8.45495 8.43929 10.9003 5.40254 10.9003C2.39775 10.9003 -0.031654 8.45495 0.000311875 5.45016C0.0322777 2.44537 2.49365 0 5.49844 0Z" fill="white"/>
<path d="M10.0866 15.0098L9.86279 45.2687H0.463806L0.687597 15.0098H10.0866Z" fill="white"/>
<path d="M34.0316 14.2744C43.5585 14.2744 45.2529 20.5244 45.2049 28.6766L45.0771 45.2687H35.694L35.8059 30.5788C35.8379 27.0621 35.79 22.5385 30.9786 22.5385C26.0873 22.5385 25.32 26.3588 25.288 30.307L25.1761 45.2687H15.7612L15.985 15.0257H25.0003L24.9683 19.1657H25.1122C26.375 16.784 29.444 14.2744 34.0316 14.2744Z" fill="white"/>
</svg>
