<svg width="59" height="59" viewBox="0 0 59 59" fill="none" xmlns="http://www.w3.org/2000/svg">
<path d="M58.9491 32.4575C58.934 32.1857 58.934 31.9138 58.9038 31.642C58.8887 31.5513 58.9038 31.4607 58.8887 31.3701C58.8283 30.6904 58.7377 30.0108 58.6168 29.316C58.496 28.6061 58.3298 27.8963 58.1335 27.2015C58.0731 26.9901 57.9976 26.7786 57.9372 26.552C57.7861 26.0687 57.6351 25.6005 57.4689 25.1172C57.4236 24.9964 57.3934 24.8756 57.3481 24.7547C57.3179 24.6792 57.2726 24.6037 57.2424 24.5131C56.895 23.6371 56.5023 22.7762 56.0492 21.9455C55.9737 21.8096 55.8982 21.6887 55.8227 21.5679C55.3393 20.707 54.8107 19.8763 54.2368 19.0909C54.2368 19.0909 54.2368 19.0909 54.2368 19.0758C54.2368 19.0607 54.2217 19.0607 54.2217 19.0456C53.4967 18.079 52.7113 17.1577 51.8655 16.2968L42.7732 7.15912C43.619 8.02002 44.4195 8.94134 45.1294 9.90797C45.1445 9.92307 45.1445 9.92306 45.1596 9.93816C45.7486 10.7235 46.2621 11.5693 46.7454 12.4151C46.821 12.536 46.8965 12.6719 46.972 12.7927C47.4251 13.6234 47.8178 14.4843 48.1652 15.3603C48.2407 15.5567 48.3162 15.753 48.3917 15.9494C48.5579 16.4176 48.724 16.9009 48.8599 17.3842C48.9203 17.5957 48.9959 17.8071 49.0563 18.0337C49.2375 18.7284 49.4037 19.4383 49.5396 20.1482C49.6755 20.9335 49.7661 21.7038 49.8266 22.4741C49.8417 22.746 49.8568 23.0178 49.8719 23.2897C49.9021 23.8032 49.9172 24.3167 49.9021 24.8302C49.9021 25.1323 49.887 25.4193 49.8719 25.7214C49.8417 26.25 49.8115 26.7635 49.7511 27.2921C49.7209 27.5036 49.7057 27.715 49.6755 27.9265C49.5698 28.6514 49.449 29.3764 49.2979 30.0863C49.2828 30.1316 49.2828 30.1618 49.2677 30.2071C49.1167 30.8868 48.9204 31.5362 48.7089 32.1857C48.6485 32.382 48.573 32.5784 48.5126 32.7747C48.3313 33.2882 48.135 33.7866 47.9235 34.3002C47.848 34.4965 47.7574 34.6929 47.6819 34.8892C47.3798 35.5538 47.0626 36.2032 46.7001 36.8225C46.6246 36.9584 46.534 37.0792 46.4585 37.2152C46.1564 37.7287 45.8392 38.2422 45.5069 38.7406L37.4417 30.6451C37.5021 30.7055 37.5474 30.766 37.5776 30.8415C37.5776 30.8566 37.5776 30.8566 37.5776 30.8717C37.5927 30.9321 37.6078 30.9925 37.6078 31.0529C37.6229 31.5211 37.5776 31.944 37.5021 32.3367C37.487 32.382 37.487 32.4273 37.487 32.4727C37.4115 32.8502 37.2906 33.1825 37.1396 33.4997C37.1094 33.5601 37.0792 33.6205 37.049 33.6809C36.8828 33.9981 36.7016 34.2851 36.4901 34.5418C36.2183 34.8741 35.9011 35.1611 35.5537 35.4027C35.448 35.4782 35.3423 35.5387 35.2366 35.5991C34.9949 35.7501 34.7381 35.9011 34.4663 36.022C34.3454 36.0824 34.2095 36.1277 34.0887 36.173C33.8319 36.2787 33.56 36.3543 33.3033 36.4147C33.1825 36.4449 33.0767 36.4751 32.9559 36.4902C32.5934 36.5506 32.2159 36.5959 31.8836 36.5959C31.7627 36.5959 31.6419 36.5959 31.5211 36.5808C28.0926 36.46 23.2141 34.4965 18.819 30.0863L27.9113 39.2239C31.5211 42.8337 35.4178 44.782 38.6046 45.4466C38.4536 45.5523 38.2875 45.658 38.1364 45.7486C37.7588 45.9903 37.3511 46.2169 36.9584 46.4283C36.6714 46.5793 36.3844 46.7455 36.0975 46.8965C35.6745 47.108 35.2365 47.3043 34.7985 47.4855C34.5116 47.6064 34.2246 47.7423 33.9377 47.848C33.4392 48.0444 32.9408 48.1954 32.4273 48.3616C32.1705 48.4371 31.9289 48.5277 31.6721 48.6032C30.9018 48.8147 30.1014 49.011 29.2858 49.1469C27.8207 49.4037 26.3708 49.5245 24.951 49.5245C22.0512 49.5245 19.2117 49.011 16.4629 47.9991C16.4931 47.9236 16.5082 47.848 16.5233 47.7725C16.6139 47.546 16.6743 47.3194 16.7196 47.108C16.7347 47.0173 16.7498 46.9267 16.7649 46.8361C16.78 46.7757 16.78 46.7153 16.7951 46.67C16.7951 46.6247 16.8102 46.5642 16.8253 46.5189C16.8405 46.3075 16.8405 46.096 16.8253 45.8846C16.8253 45.8695 16.8102 45.8544 16.8102 45.8393C16.78 45.4919 16.6894 45.1445 16.5535 44.782C16.5535 44.7669 16.5535 44.7669 16.5384 44.7518C16.4327 44.4648 16.2816 44.1628 16.1004 43.8456C15.6624 43.0602 15.2848 42.2446 14.9676 41.4441C14.8921 41.2478 14.8468 41.0666 14.7864 40.8702C14.5447 40.2057 14.3182 39.5411 14.152 38.8614C14.0765 38.5443 14.0312 38.2422 13.9708 37.925C13.8651 37.3662 13.7593 36.8225 13.6989 36.2636C13.6385 35.6595 13.5781 35.0553 13.563 34.4663C13.563 34.3908 13.5479 34.3304 13.5479 34.2549C13.5479 33.5752 13.5781 32.9106 13.6385 32.231C13.714 31.3248 13.8499 30.4186 14.0463 29.5274C14.0463 29.5123 14.0463 29.5124 14.0614 29.4973C14.2577 28.6364 14.5296 27.7754 14.8317 26.9448C14.9223 26.7031 15.028 26.4614 15.1337 26.2198C15.3905 25.5703 15.6926 24.9511 16.0097 24.3318C16.191 23.9845 16.3722 23.6371 16.5686 23.3048C16.6894 23.1084 16.8102 22.9121 16.9311 22.7158C17.2482 22.2324 17.5805 21.7642 17.9279 21.3111C18.0185 21.1903 18.1091 21.0695 18.1998 20.9486C18.6529 20.3898 19.1211 19.8612 19.6346 19.3477C19.7705 19.2117 19.9065 19.0909 20.0424 18.9701C20.2236 18.804 20.4049 18.6529 20.6012 18.4868C20.6768 18.6831 20.7523 18.8644 20.8278 19.0607C20.9033 19.2722 20.9335 19.4836 20.9033 19.6951C20.9033 19.7102 20.9033 19.7102 20.9033 19.7253C20.8731 19.9367 20.7976 20.1482 20.6616 20.3747C20.6616 20.3898 20.6465 20.4049 20.6465 20.4049C20.6163 20.4653 20.5408 20.5409 20.5106 20.6164C20.3747 20.8278 20.2236 21.0393 20.0273 21.296C19.8158 21.5679 19.5742 21.8549 19.2872 22.172C19.2721 22.2022 19.2419 22.2173 19.2268 22.2324C19.1664 22.308 19.106 22.3835 19.0607 22.4741C19.0607 22.4892 19.0607 22.4892 19.0456 22.5043C19.0456 22.5194 19.0305 22.5194 19.0305 22.5345C19.0153 22.5647 19.0002 22.61 18.9851 22.6402C18.97 22.6855 18.9549 22.7309 18.9398 22.7762C18.9398 22.7913 18.9398 22.8215 18.9247 22.8366C18.9247 22.8517 18.9247 22.8517 18.9247 22.8668C18.9247 22.8819 18.9247 22.897 18.9247 22.9121C18.9247 22.9574 18.9247 23.0178 18.9247 23.0783C18.9247 23.1085 18.9398 23.1386 18.9398 23.1538C18.9398 23.1991 18.9549 23.2444 18.97 23.2746C18.9852 23.3048 18.9852 23.335 19.0003 23.3652C19.0305 23.4407 19.0607 23.5012 19.106 23.5767C19.4685 24.1959 19.846 24.7698 20.2538 25.3287C20.2689 25.3589 20.2992 25.374 20.3143 25.4042C20.7976 26.0385 21.3111 26.6427 21.8548 27.2015L30.9471 36.3392C30.3883 35.7803 29.8899 35.1762 29.4066 34.5418C28.9686 33.9679 28.5608 33.3637 28.1832 32.7143C28.1228 32.6086 28.0926 32.5029 28.0624 32.3971C28.0473 32.3518 28.0322 32.3065 28.0322 32.2763C28.0171 32.1857 28.0019 32.08 28.017 31.9893C28.017 31.9742 28.017 31.9742 28.017 31.9591C28.0322 31.8534 28.0624 31.7477 28.1228 31.642C28.1228 31.6269 28.1228 31.6268 28.1379 31.6117C28.1983 31.506 28.2738 31.4003 28.3644 31.2795C28.6363 30.9774 28.8629 30.7055 29.0743 30.4488C29.0894 30.4337 29.0894 30.4186 29.1045 30.4035C29.3009 30.1618 29.4519 29.9352 29.5878 29.7238C29.618 29.6634 29.6936 29.5879 29.7238 29.5274C29.7238 29.5274 29.7238 29.5124 29.7389 29.5124C29.7389 29.4972 29.754 29.4821 29.754 29.4821C29.8144 29.3764 29.8597 29.2858 29.8899 29.1801C29.9201 29.0894 29.9503 29.0139 29.9654 28.9384C29.9805 28.9082 29.9805 28.8629 29.9805 28.8327C29.9805 28.8176 29.9805 28.8176 29.9805 28.8025C29.9805 28.7874 29.9956 28.7572 29.9956 28.7421C29.9956 28.6666 29.9956 28.591 29.9956 28.5155C29.9805 28.3947 29.9503 28.2739 29.905 28.1681C29.7842 27.851 29.6785 27.5338 29.5425 27.2166C29.467 27.0203 29.3764 26.8239 29.3009 26.6125C28.8629 25.5099 28.4098 24.4225 27.9416 23.335C27.8811 23.1991 27.7905 23.048 27.6999 22.9272C27.6546 22.8668 27.6093 22.8215 27.564 22.7611L22.0663 17.2483C22.4892 16.9311 22.9272 16.6139 23.3803 16.327C23.4558 16.2817 23.5313 16.2212 23.6068 16.1759C24.2412 15.7983 24.8906 15.451 25.5703 15.1338C25.7515 15.0432 25.9479 14.9677 26.1442 14.8921C26.6728 14.6656 27.2015 14.4541 27.7603 14.2729C27.9717 14.1974 28.1832 14.1219 28.3946 14.0614C29.1347 13.8349 29.8899 13.6385 30.6753 13.5026C31.944 13.276 33.1976 13.1552 34.4512 13.1552C40.0093 13.1552 45.1747 15.4056 48.9355 19.1664L39.8431 10.0288C36.0823 6.26802 30.9169 4.01758 25.3588 4.01758C24.1203 4.01758 22.8516 4.12332 21.583 4.36498C20.7976 4.51601 20.0424 4.71235 19.3023 4.9238C19.0909 4.98421 18.8794 5.05973 18.668 5.13525C18.1243 5.31649 17.5805 5.52795 17.0519 5.7545C16.8555 5.83002 16.6592 5.92062 16.478 5.99614C15.7983 6.31331 15.1489 6.6607 14.5145 7.03828C14.439 7.0836 14.3635 7.14402 14.2879 7.18933C13.7291 7.53671 13.2005 7.89919 12.687 8.29188C12.5057 8.42781 12.3396 8.56375 12.1735 8.69968C11.7355 9.04706 11.3277 9.40954 10.935 9.80223C10.799 9.93817 10.6631 10.059 10.5272 10.1949C10.0439 10.6783 9.59074 11.1767 9.16784 11.6902C9.13764 11.7204 9.12254 11.7506 9.09233 11.7808C9.00171 11.9016 8.91109 12.0225 8.82047 12.1433C8.47309 12.5964 8.1257 13.0646 7.82363 13.5479C7.7028 13.7443 7.58198 13.9406 7.46115 14.137C7.34032 14.3333 7.2195 14.5146 7.09867 14.726C7.02315 14.8619 6.96274 15.0281 6.88722 15.164C6.55494 15.7832 6.26797 16.4176 5.99611 17.0519C5.92059 17.2181 5.82996 17.3842 5.76955 17.5504C5.73934 17.6259 5.72425 17.7014 5.69404 17.7769C5.39197 18.6076 5.1201 19.4534 4.92376 20.3294C4.92376 20.3445 4.92375 20.3445 4.90865 20.3596C4.7123 21.2507 4.57638 22.1569 4.50086 23.0631C4.48575 23.1538 4.47065 23.2293 4.45555 23.3199C4.41024 23.9089 4.39513 24.498 4.39513 25.087C4.39513 25.1625 4.41024 25.2381 4.41024 25.3136C4.42534 25.7969 4.44044 26.2802 4.48575 26.7484C4.50085 26.8692 4.53106 26.9901 4.54617 27.1109C4.60658 27.6697 4.71231 28.2285 4.81803 28.7723C4.87845 29.0894 4.92376 29.4066 4.99928 29.7087C5.16542 30.3733 5.39196 31.0378 5.61852 31.7024C5.67893 31.8685 5.70914 32.0497 5.78466 32.2159C5.79976 32.231 5.79977 32.2612 5.81487 32.2763C6.13204 33.0919 6.50963 33.8924 6.94764 34.6778C7.12888 34.9949 7.2799 35.3121 7.38563 35.6142C7.52156 35.9615 7.59709 36.3089 7.6424 36.6714C7.6726 36.9433 7.6726 37.2151 7.6424 37.5021C7.6424 37.5625 7.62729 37.6229 7.61218 37.6682C7.56687 37.9703 7.49136 38.2724 7.37053 38.6047C7.06846 39.4807 6.8117 40.3718 6.57005 41.278C6.32839 42.1993 6.08673 43.1357 5.81487 44.1175L9.15275 47.4705C4.33472 48.7089 1.11766 49.6001 0 49.8115L9.09233 58.9491C10.4214 58.6924 14.8015 57.469 21.3715 55.8076C21.5225 55.7774 21.6887 55.7472 21.8699 55.7472C22.2173 55.7472 22.5949 55.8227 22.897 55.9737C26.4614 57.7107 30.1618 58.6017 33.9981 58.6017C35.4329 58.6017 36.8677 58.4809 38.3328 58.2242C39.1484 58.0882 39.9337 57.8919 40.7191 57.6804C40.9759 57.6049 41.2175 57.5143 41.4743 57.4388C41.9878 57.2727 42.5014 57.1216 42.9998 56.9253C43.2867 56.8195 43.5737 56.6836 43.8607 56.5628C44.2987 56.3664 44.7367 56.1852 45.1747 55.9737C45.4616 55.8227 45.7486 55.6717 46.0356 55.5206C46.4434 55.2941 46.8361 55.0675 47.2137 54.8259C47.5006 54.6446 47.7725 54.4634 48.0443 54.2821C48.4219 54.0254 48.7844 53.7686 49.1318 53.4968C49.3886 53.3004 49.6453 53.089 49.9021 52.8926C50.2495 52.6056 50.5817 52.3036 50.914 52.0015C51.1557 51.7901 51.3822 51.5635 51.6088 51.337C51.9411 51.0198 52.2431 50.6724 52.5452 50.3401C52.7566 50.1136 52.953 49.887 53.1494 49.6605C53.2098 49.5849 53.2853 49.5245 53.3457 49.449C53.5873 49.1469 53.8139 48.8147 54.0555 48.4975C54.2217 48.271 54.3878 48.0595 54.554 47.8329C54.9014 47.3345 55.2185 46.8059 55.5357 46.2773C55.6112 46.1413 55.7018 46.0205 55.7774 45.8846C55.7774 45.8695 55.7925 45.8544 55.7925 45.8544C56.1399 45.2351 56.457 44.6008 56.744 43.9513C56.8346 43.755 56.9101 43.5586 56.9856 43.3623C57.1065 43.0753 57.2424 42.7884 57.3481 42.5014C57.4237 42.2899 57.4992 42.0634 57.5747 41.8519C57.6502 41.6556 57.7106 41.4592 57.771 41.2629C57.9825 40.6134 58.1637 39.9489 58.3299 39.2843C58.345 39.239 58.345 39.2088 58.3601 39.1635C58.3601 39.1484 58.3601 39.1484 58.3601 39.1333C58.5262 38.4234 58.6319 37.7136 58.7377 36.9886C58.7679 36.7771 58.783 36.5657 58.8132 36.3542C58.8434 36.0673 58.8887 35.7954 58.9038 35.5085C58.9189 35.2668 58.9189 35.0251 58.934 34.7835C58.9491 34.4814 58.9642 34.1944 58.9642 33.8924C58.9793 33.4846 58.9642 32.9711 58.9491 32.4575Z" fill="#CCCCCC"/>
<path d="M16.7499 13.3213C17.2181 13.3213 17.7165 13.4119 18.1847 13.4874C18.4717 13.5176 18.7284 13.9405 18.8795 14.2426C19.5591 15.8436 20.2388 17.4446 20.8278 19.0757C21.1601 19.9366 20.5559 20.7673 19.2872 22.2022C18.8945 22.6553 18.8039 23.0782 19.106 23.6068C21.1148 27.0504 23.924 29.5274 27.6546 30.9924C27.8208 31.0528 27.9718 31.083 28.1228 31.083C28.44 31.083 28.7119 30.932 28.9535 30.6299C30.5545 28.7118 31.0076 27.866 31.6419 27.866C31.8081 27.866 31.9742 27.9113 32.1857 28.017C37.1698 30.4034 37.5625 30.494 37.5776 31.0679C37.7136 35.0704 34.2246 36.6411 31.8534 36.6411C31.7326 36.6411 31.6117 36.6412 31.4909 36.6261C26.6578 36.4599 18.9852 32.6387 13.7745 23.4709C11.9318 20.2236 12.2339 16.5232 14.9978 13.9556C15.5265 13.4723 16.1306 13.3213 16.7499 13.3213Z" fill="white"/>
<path d="M49.5094 20.1632C51.8806 33.847 42.8487 46.8058 29.2555 49.1922C27.7905 49.449 26.3406 49.5698 24.9208 49.5698C21.0845 49.5698 17.3842 48.6787 13.8348 46.9418C13.5328 46.7907 13.1552 46.7152 12.8078 46.7152C12.6266 46.7152 12.4604 46.7303 12.3094 46.7756C5.73934 48.4219 1.37443 49.6453 0.0302124 49.9172C0.31718 48.8448 0.573938 47.9084 0.830698 46.972C1.6765 43.9664 2.55249 40.9759 3.33788 37.9703C3.45871 37.5172 3.42851 36.9432 3.21706 36.5203C-4.3045 22.0058 3.70036 4.44043 19.7101 0.679654C21.6887 0.211445 23.637 0 25.525 0C37.5927 0 47.5459 8.85066 49.5094 20.1632ZM28.2436 45.22C39.4957 43.4226 47.259 32.9106 45.6429 21.7038C44.1325 11.373 35.4027 4.07795 25.3739 4.07795C24.1354 4.07795 22.8667 4.18367 21.598 4.42532C7.67259 6.97782 0.166145 22.4891 6.99294 34.7683C7.74812 36.1276 7.94446 37.2453 7.41584 38.6952C6.7966 40.4473 6.41901 42.2446 5.84507 44.2231C8.30695 43.5888 10.5876 43.0149 12.8531 42.3805C13.0646 42.3201 13.2609 42.305 13.4421 42.305C13.8197 42.305 14.1671 42.4107 14.5447 42.6373C17.8071 44.5252 21.2356 45.5069 24.8755 45.5069C25.9781 45.4918 27.0957 45.4012 28.2436 45.22Z" fill="white"/>
</svg>
